<svg width="151" height="36" viewBox="0 0 151 36" fill="none" xmlns="http://www.w3.org/2000/svg">
<path d="M147.224 29.6399C146.244 29.6399 145.474 29.4999 144.914 29.2199C144.374 28.9199 143.994 28.4999 143.774 27.9599C143.554 27.4199 143.444 26.7699 143.444 26.0099V16.7099H140.504V13.6799H143.444V9.17994L147.164 8.78994V13.6799H150.554V16.7099H147.164V25.3199C147.164 25.8199 147.274 26.1599 147.494 26.3399C147.714 26.4999 148.054 26.5799 148.514 26.5799H150.554V29.6399H147.224Z" fill="white"/>
<path d="M134.482 29.6397V13.6797H138.232V29.6397H134.482ZM134.482 11.4297V7.7697H138.232V11.4297H134.482Z" fill="white"/>
<path d="M125 29.9397C124.16 29.9397 123.39 29.8097 122.69 29.5497C121.99 29.2697 121.39 28.8897 120.89 28.4097C120.39 27.9097 120.01 27.3397 119.75 26.6997H119.54L119.39 29.6397H115.79V7.7697H119.54V16.6197H119.75C120.13 15.6597 120.78 14.8797 121.7 14.2797C122.62 13.6797 123.72 13.3797 125 13.3797C125.98 13.3797 126.86 13.5597 127.64 13.9197C128.44 14.2597 129.12 14.7797 129.68 15.4797C130.26 16.1797 130.7 17.0497 131 18.0897C131.3 19.1097 131.45 20.2997 131.45 21.6597C131.45 23.4597 131.18 24.9797 130.64 26.2197C130.12 27.4397 129.37 28.3697 128.39 29.0097C127.43 29.6297 126.3 29.9397 125 29.9397ZM123.62 26.8797C124.42 26.8797 125.12 26.6897 125.72 26.3097C126.32 25.9097 126.79 25.3297 127.13 24.5697C127.47 23.7897 127.64 22.8197 127.64 21.6597C127.64 20.7797 127.54 20.0197 127.34 19.3797C127.16 18.7197 126.89 18.1697 126.53 17.7297C126.17 17.2897 125.74 16.9697 125.24 16.7697C124.76 16.5497 124.22 16.4397 123.62 16.4397C122.74 16.4397 122 16.6497 121.4 17.0697C120.8 17.4897 120.34 18.0297 120.02 18.6897C119.72 19.3497 119.57 20.0597 119.57 20.8197V22.4997C119.57 23.2397 119.72 23.9397 120.02 24.5997C120.34 25.2597 120.8 25.8097 121.4 26.2497C122 26.6697 122.74 26.8797 123.62 26.8797Z" fill="white"/>
<path d="M105.907 29.9395C104.487 29.9395 103.267 29.7195 102.247 29.2795C101.227 28.8195 100.437 28.1895 99.877 27.3895C99.337 26.5895 99.067 25.6595 99.067 24.5995H102.757C102.777 25.5195 103.087 26.1895 103.687 26.6095C104.287 27.0295 105.067 27.2395 106.027 27.2395C106.967 27.2395 107.677 27.0695 108.157 26.7295C108.657 26.3695 108.907 25.8795 108.907 25.2595C108.907 24.7595 108.797 24.3795 108.577 24.1195C108.357 23.8395 107.997 23.6295 107.497 23.4895C106.997 23.3295 106.337 23.1895 105.517 23.0695C104.177 22.8695 103.057 22.5995 102.157 22.2595C101.257 21.8995 100.587 21.4095 100.147 20.7895C99.707 20.1695 99.487 19.3495 99.487 18.3295C99.487 17.3295 99.757 16.4595 100.297 15.7195C100.837 14.9795 101.597 14.4095 102.577 14.0095C103.557 13.5895 104.707 13.3795 106.027 13.3795C107.307 13.3795 108.417 13.5895 109.357 14.0095C110.317 14.4095 111.057 14.9895 111.577 15.7495C112.117 16.4895 112.397 17.3795 112.417 18.4195H108.727C108.727 17.8595 108.607 17.4095 108.367 17.0695C108.147 16.7095 107.827 16.4495 107.407 16.2895C106.987 16.1295 106.497 16.0495 105.937 16.0495C105.097 16.0495 104.437 16.2295 103.957 16.5895C103.477 16.9295 103.237 17.3995 103.237 17.9995C103.237 18.4395 103.357 18.7995 103.597 19.0795C103.857 19.3395 104.267 19.5495 104.827 19.7095C105.387 19.8695 106.107 20.0095 106.987 20.1295C107.947 20.2695 108.777 20.4495 109.477 20.6695C110.197 20.8895 110.797 21.1895 111.277 21.5695C111.757 21.9295 112.117 22.3895 112.357 22.9495C112.617 23.4895 112.747 24.1495 112.747 24.9295C112.747 26.5295 112.117 27.7695 110.857 28.6495C109.617 29.5095 107.967 29.9395 105.907 29.9395Z" fill="white"/>
<path d="M86.825 29.9095C85.865 29.9095 84.985 29.7395 84.185 29.3995C83.405 29.0395 82.725 28.5095 82.145 27.8095C81.585 27.1095 81.155 26.2495 80.855 25.2295C80.555 24.1895 80.405 22.9995 80.405 21.6595C80.405 19.8395 80.665 18.3195 81.185 17.0995C81.725 15.8595 82.475 14.9295 83.435 14.3095C84.415 13.6895 85.545 13.3795 86.825 13.3795C87.705 13.3795 88.485 13.5195 89.165 13.7995C89.865 14.0595 90.465 14.4295 90.965 14.9095C91.465 15.3895 91.845 15.9595 92.105 16.6195H92.315L92.465 13.6795H96.065V29.6395H92.315V26.6695H92.105C91.725 27.6495 91.075 28.4395 90.155 29.0395C89.235 29.6195 88.125 29.9095 86.825 29.9095ZM88.235 26.8495C89.135 26.8495 89.875 26.6395 90.455 26.2195C91.055 25.7995 91.505 25.2595 91.805 24.5995C92.105 23.9195 92.255 23.2095 92.255 22.4695V20.8195C92.255 20.0595 92.105 19.3495 91.805 18.6895C91.505 18.0095 91.055 17.4695 90.455 17.0695C89.875 16.6495 89.135 16.4395 88.235 16.4395C87.435 16.4395 86.735 16.6295 86.135 17.0095C85.535 17.3895 85.065 17.9695 84.725 18.7495C84.385 19.5095 84.215 20.4795 84.215 21.6595C84.215 22.7995 84.385 23.7595 84.725 24.5395C85.065 25.3195 85.535 25.8995 86.135 26.2795C86.735 26.6595 87.435 26.8495 88.235 26.8495Z" fill="white"/>
<path d="M68.31 29.9095C67.35 29.9095 66.47 29.7395 65.67 29.3995C64.89 29.0395 64.21 28.5095 63.63 27.8095C63.07 27.1095 62.64 26.2495 62.34 25.2295C62.04 24.1895 61.89 22.9995 61.89 21.6595C61.89 19.8395 62.15 18.3195 62.67 17.0995C63.21 15.8595 63.96 14.9295 64.92 14.3095C65.9 13.6895 67.03 13.3795 68.31 13.3795C69.19 13.3795 69.97 13.5195 70.65 13.7995C71.35 14.0595 71.95 14.4295 72.45 14.9095C72.95 15.3895 73.33 15.9595 73.59 16.6195H73.8L73.95 13.6795H77.55V29.6395H73.8V26.6695H73.59C73.21 27.6495 72.56 28.4395 71.64 29.0395C70.72 29.6195 69.61 29.9095 68.31 29.9095ZM69.72 26.8495C70.62 26.8495 71.36 26.6395 71.94 26.2195C72.54 25.7995 72.99 25.2595 73.29 24.5995C73.59 23.9195 73.74 23.2095 73.74 22.4695V20.8195C73.74 20.0595 73.59 19.3495 73.29 18.6895C72.99 18.0095 72.54 17.4695 71.94 17.0695C71.36 16.6495 70.62 16.4395 69.72 16.4395C68.92 16.4395 68.22 16.6295 67.62 17.0095C67.02 17.3895 66.55 17.9695 66.21 18.7495C65.87 19.5095 65.7 20.4795 65.7 21.6595C65.7 22.7995 65.87 23.7595 66.21 24.5395C66.55 25.3195 67.02 25.8995 67.62 26.2795C68.22 26.6595 68.92 26.8495 69.72 26.8495Z" fill="white"/>
<path d="M50.8503 29.9097C48.9103 29.9097 47.2803 29.6097 45.9603 29.0097C44.6603 28.4097 43.6803 27.5697 43.0203 26.4897C42.3603 25.4097 42.0203 24.1797 42.0003 22.7997H46.0503C46.0703 23.6197 46.2503 24.3297 46.5903 24.9297C46.9503 25.5297 47.4903 25.9997 48.2103 26.3397C48.9303 26.6797 49.8603 26.8497 51.0003 26.8497C52.3603 26.8497 53.4503 26.5997 54.2703 26.0997C55.0903 25.5797 55.5003 24.8197 55.5003 23.8197C55.5003 23.2397 55.4103 22.7597 55.2303 22.3797C55.0503 21.9797 54.7503 21.6497 54.3303 21.3897C53.9103 21.1297 53.3503 20.9097 52.6503 20.7297C51.9703 20.5497 51.1103 20.3697 50.0703 20.1897C48.8303 19.9897 47.7303 19.7297 46.7703 19.4097C45.8303 19.0697 45.0403 18.6597 44.4003 18.1797C43.7603 17.6997 43.2803 17.1197 42.9603 16.4397C42.6403 15.7397 42.4803 14.9097 42.4803 13.9497C42.4803 12.6297 42.8103 11.4897 43.4703 10.5297C44.1503 9.56968 45.1103 8.82968 46.3503 8.30968C47.5903 7.76968 49.0703 7.49968 50.7903 7.49968C52.4903 7.49968 53.9403 7.76968 55.1403 8.30968C56.3603 8.84968 57.3003 9.60968 57.9603 10.5897C58.6203 11.5497 58.9503 12.6697 58.9503 13.9497H54.9603C54.9203 13.1697 54.7103 12.5297 54.3303 12.0297C53.9503 11.5097 53.4403 11.1297 52.8003 10.8897C52.1803 10.6497 51.4603 10.5297 50.6403 10.5297C49.8003 10.5297 49.0703 10.6497 48.4503 10.8897C47.8503 11.1297 47.3903 11.4697 47.0703 11.9097C46.7503 12.3297 46.5903 12.8397 46.5903 13.4397C46.5903 14.1797 46.7703 14.7497 47.1303 15.1497C47.5103 15.5297 48.1103 15.8297 48.9303 16.0497C49.7703 16.2697 50.8503 16.4897 52.1703 16.7097C53.1103 16.8697 54.0203 17.0697 54.9003 17.3097C55.8003 17.5497 56.6003 17.9097 57.3003 18.3897C58.0203 18.8497 58.5903 19.4897 59.0103 20.3097C59.4303 21.1097 59.6403 22.1497 59.6403 23.4297C59.6403 24.7097 59.3103 25.8397 58.6503 26.8197C57.9903 27.7997 57.0103 28.5597 55.7103 29.0997C54.4103 29.6397 52.7903 29.9097 50.8503 29.9097Z" fill="white"/>
<g clip-path="url(#clip0_142_3633)">
<path fill-rule="evenodd" clip-rule="evenodd" d="M7.83462 21.3181H14.5918H21.4082H28.2247V28.0125L17.998 36L7.83258 28.0125V21.3181H7.83462ZM14.5918 21.3181V14.6237H21.4082V21.3181V28.0125H14.5918V21.3181ZM28.2247 21.3181V14.6237H35.998C34.4441 6.28479 26.9693 0 18 0L28.2267 7.98751V14.6237H21.4103V7.98751H14.5918V14.6237H7.83462V7.98751L18 0C9.03067 0 1.61518 6.28479 0 14.6237H7.83462V21.3181H0C1.61518 29.657 9.03067 36 18 36C26.9693 36 34.4441 29.657 36 21.3181H28.2247Z" fill="#6342F5"/>
</g>
<defs>
<clipPath id="clip0_142_3633">
<rect width="36" height="36" fill="white"/>
</clipPath>
</defs>
</svg>
